<?xml version="1.0" encoding="UTF-8" standalone="no"?>
<svg
   xmlns:dc="http://purl.org/dc/elements/1.1/"
   xmlns:cc="http://creativecommons.org/ns#"
   xmlns:rdf="http://www.w3.org/1999/02/22-rdf-syntax-ns#"
   xmlns:svg="http://www.w3.org/2000/svg"
   xmlns="http://www.w3.org/2000/svg"
   xmlns:sodipodi="http://sodipodi.sourceforge.net/DTD/sodipodi-0.dtd"
   xmlns:inkscape="http://www.inkscape.org/namespaces/inkscape"
   width="162mm"
   height="162mm"
   viewBox="-81 -81 162 162"
   version="1.1"
   id="svg6"
   sodipodi:docname="bolted_tray_b.svg"
   inkscape:version="1.0.2 (e86c870879, 2021-01-15)">
  <metadata
     id="metadata12">
    <rdf:RDF>
      <cc:Work
         rdf:about="">
        <dc:format>image/svg+xml</dc:format>
        <dc:type
           rdf:resource="http://purl.org/dc/dcmitype/StillImage" />
      </cc:Work>
    </rdf:RDF>
  </metadata>
  <defs
     id="defs10" />
  <sodipodi:namedview
     pagecolor="#ffffff"
     bordercolor="#666666"
     borderopacity="1"
     objecttolerance="10"
     gridtolerance="10"
     guidetolerance="10"
     inkscape:pageopacity="0"
     inkscape:pageshadow="2"
     inkscape:window-width="1920"
     inkscape:window-height="1051"
     id="namedview8"
     showgrid="false"
     inkscape:zoom="1.4519419"
     inkscape:cx="236.98732"
     inkscape:cy="562.09601"
     inkscape:window-x="1920"
     inkscape:window-y="0"
     inkscape:window-maximized="1"
     inkscape:current-layer="svg6" />
  <title
     id="title2">OpenSCAD Model</title>
  <path
     id="path855"
     style="fill:#ff00ff;stroke:none;stroke-width:3.77953"
     d="M 30.236328 207.87305 L 30.236328 230.55078 L 0 230.55078 L 0 381.73242 L 30.236328 381.73242 L 30.236328 404.41016 L 60.472656 404.41016 L 60.472656 381.73242 L 68.03125 381.73242 L 68.03125 365.85742 L 60.056641 357.88281 L 60.056641 355.61523 L 91.125 355.61523 L 91.125 357.88281 L 83.150391 365.85742 L 83.150391 381.73242 L 90.708984 381.73242 L 90.708984 404.41016 L 120.94531 404.41016 L 120.94531 381.73242 L 196.41016 381.73242 L 196.41016 230.55078 L 120.94531 230.55078 L 120.94531 207.87305 L 90.708984 207.87305 L 90.708984 230.55078 L 83.150391 230.55078 L 83.150391 246.42578 L 91.125 254.40039 L 91.125 256.66797 L 60.056641 256.66797 L 60.056641 254.40039 L 68.03125 246.42578 L 68.03125 230.55078 L 60.472656 230.55078 L 60.472656 207.87305 L 30.236328 207.87305 z M 151.18164 260.67383 L 173.84766 260.67383 L 173.84766 291.08008 L 151.18164 291.08008 L 151.18164 260.67383 z M 151.18164 321.20312 L 173.84766 321.20312 L 173.84766 351.60938 L 151.18164 351.60938 L 151.18164 321.20312 z "
     transform="matrix(0.26458334,0,0,0.26458334,-81,-81)" />
</svg>
